<svg width="150" height="44" viewBox="0 0 150 44" fill="none" xmlns="http://www.w3.org/2000/svg">
<rect width="150" height="44" fill="#EEEEEE" fill-opacity="0.933333"/>
<path fill-rule="evenodd" clip-rule="evenodd" d="M28.0099 10.5C21.3687 10.5 16 15.7708 16 22.2915C16 27.5039 19.4399 31.916 24.2121 33.4776C24.8087 33.595 25.0272 33.2239 25.0272 32.9117C25.0272 32.6384 25.0076 31.7014 25.0076 30.7251C21.6667 31.428 20.971 29.3194 20.971 29.3194C20.4341 27.9529 19.6386 27.6016 19.6386 27.6016C18.5451 26.8793 19.7182 26.8793 19.7182 26.8793C20.9312 26.9574 21.5676 28.0897 21.5676 28.0897C22.6412 29.8856 24.3711 29.3781 25.0671 29.0657C25.1664 28.3043 25.4847 27.7772 25.8228 27.4845C23.1582 27.2111 20.3547 26.196 20.3547 21.6667C20.3547 20.3782 20.8316 19.3241 21.5873 18.5042C21.4681 18.2114 21.0504 17.0008 21.7068 15.3805C21.7068 15.3805 22.7208 15.0681 25.0073 16.5909C25.9863 16.3328 26.9958 16.2015 28.0099 16.2004C29.024 16.2004 30.0577 16.3372 31.0123 16.5909C33.299 15.0681 34.3131 15.3805 34.3131 15.3805C34.9695 17.0008 34.5515 18.2114 34.4323 18.5042C35.2079 19.3241 35.6652 20.3782 35.6652 21.6667C35.6652 26.196 32.8617 27.1915 30.1772 27.4845C30.6148 27.8553 30.9924 28.558 30.9924 29.6709C30.9924 31.2521 30.9727 32.5212 30.9727 32.9115C30.9727 33.2239 31.1915 33.595 31.7879 33.4779C36.56 31.9158 39.9999 27.5039 39.9999 22.2915C40.0196 15.7708 34.6312 10.5 28.0099 10.5Z" fill="#24292F"/>
<path d="M58.9688 20.2188C58.7188 19.474 58.3177 18.8932 57.7656 18.4766C57.2188 18.0547 56.5521 17.8438 55.7656 17.8438C55.0885 17.8438 54.4766 18.0182 53.9297 18.3672C53.388 18.7161 52.9583 19.2292 52.6406 19.9062C52.3281 20.5833 52.1719 21.3958 52.1719 22.3438C52.1719 23.2917 52.3307 24.1042 52.6484 24.7812C52.9661 25.4583 53.4036 25.9714 53.9609 26.3203C54.5182 26.6693 55.151 26.8438 55.8594 26.8438C56.4948 26.8438 57.0547 26.7109 57.5391 26.4453C58.0286 26.1745 58.4089 25.7917 58.6797 25.2969C58.9557 24.7969 59.099 24.2188 59.1094 23.5625H56.1562V22.3281H60.4844V23.5469C60.4844 24.4688 60.2865 25.2786 59.8906 25.9766C59.4948 26.6745 58.9453 27.2135 58.2422 27.5938C57.5443 27.9688 56.75 28.1562 55.8594 28.1562C54.8594 28.1562 53.9766 27.9219 53.2109 27.4531C52.4505 26.9792 51.8594 26.3047 51.4375 25.4297C51.0208 24.5495 50.8125 23.5208 50.8125 22.3438C50.8125 21.1719 51.0208 20.1484 51.4375 19.2734C51.8594 18.3932 52.4453 17.7161 53.1953 17.2422C53.9453 16.7682 54.8021 16.5312 55.7656 16.5312C56.5521 16.5312 57.2734 16.6875 57.9297 17C58.5859 17.3073 59.1302 17.7396 59.5625 18.2969C59.9948 18.8542 60.2812 19.4948 60.4219 20.2188H58.9688ZM62.9531 19.5156H64.2969V28H62.9531V19.5156ZM63.625 18.1094C63.3646 18.1094 63.1432 18.0234 62.9609 17.8516C62.7786 17.6797 62.6875 17.4688 62.6875 17.2188C62.6875 16.9688 62.7786 16.7578 62.9609 16.5859C63.1432 16.4141 63.3646 16.3281 63.625 16.3281C63.8854 16.3281 64.1094 16.4141 64.2969 16.5859C64.4844 16.7578 64.5781 16.9688 64.5781 17.2188C64.5781 17.4688 64.4844 17.6797 64.2969 17.8516C64.1094 18.0234 63.8854 18.1094 63.625 18.1094ZM70.1406 20.6406H68.3594V25.5625C68.3594 26.0625 68.4583 26.3984 68.6562 26.5703C68.8542 26.7422 69.125 26.8281 69.4688 26.8281C69.7292 26.8281 69.9948 26.8177 70.2656 26.7969V28.0469C69.9948 28.0885 69.6823 28.1094 69.3281 28.1094C68.9323 28.1094 68.5573 28.0286 68.2031 27.8672C67.849 27.7005 67.5599 27.4505 67.3359 27.1172C67.112 26.7839 67 26.3802 67 25.9062V20.6406H65.7188V19.5156H67V17.4844H68.3594V19.5156H70.1406V20.6406ZM76.4219 23.7812H71.4688V22.5469H76.4219V23.7812ZM78.6562 16.6875H80.0625V21.7188H86.0469V16.6875H87.4688V28H86.0469V22.9531H80.0625V28H78.6562V16.6875ZM95.1406 19.5156H96.4688V28H95.1406V26.5625H95.0469C94.8281 27.026 94.5052 27.401 94.0781 27.6875C93.6562 27.9688 93.1406 28.1094 92.5312 28.1094C91.9844 28.1094 91.5052 27.9922 91.0938 27.7578C90.6823 27.5182 90.3594 27.1589 90.125 26.6797C89.8958 26.2005 89.7812 25.6094 89.7812 24.9062V19.5156H91.125V24.8125C91.125 25.2135 91.2031 25.5651 91.3594 25.8672C91.5156 26.1693 91.7318 26.4036 92.0078 26.5703C92.2891 26.7318 92.6094 26.8125 92.9688 26.8125C93.3073 26.8125 93.6432 26.7266 93.9766 26.5547C94.3151 26.3828 94.5938 26.125 94.8125 25.7812C95.0312 25.4323 95.1406 25.0104 95.1406 24.5156V19.5156ZM98.7969 16.6875H100.141V20.8594H100.25C100.453 20.5521 100.622 20.3151 100.758 20.1484C100.898 19.9766 101.133 19.8099 101.461 19.6484C101.789 19.487 102.203 19.4062 102.703 19.4062C103.411 19.4062 104.039 19.5859 104.586 19.9453C105.133 20.2995 105.56 20.8073 105.867 21.4688C106.174 22.1302 106.328 22.901 106.328 23.7812C106.328 24.6615 106.174 25.4349 105.867 26.1016C105.56 26.763 105.133 27.2734 104.586 27.6328C104.044 27.9922 103.422 28.1719 102.719 28.1719C102.224 28.1719 101.812 28.0911 101.484 27.9297C101.156 27.763 100.911 27.5859 100.75 27.3984C100.594 27.2109 100.427 26.9792 100.25 26.7031H100.094V28H98.7969V16.6875ZM100.109 23.75C100.109 24.3906 100.203 24.9531 100.391 25.4375C100.578 25.9219 100.852 26.2995 101.211 26.5703C101.576 26.8359 102.01 26.9688 102.516 26.9688C103.036 26.9688 103.482 26.8307 103.852 26.5547C104.221 26.2734 104.5 25.8906 104.688 25.4062C104.875 24.9167 104.969 24.3646 104.969 23.75C104.969 23.151 104.875 22.6146 104.688 22.1406C104.505 21.6667 104.229 21.2943 103.859 21.0234C103.495 20.7474 103.047 20.6094 102.516 20.6094C102.005 20.6094 101.568 20.7396 101.203 21C100.844 21.2604 100.57 21.6276 100.383 22.1016C100.201 22.5703 100.109 23.1198 100.109 23.75Z" fill="black"/>
</svg>
