<svg width="228" height="79" viewBox="0 0 228 79" fill="none" xmlns="http://www.w3.org/2000/svg">
<g clip-path="url(#clip0_900_90)">
<path d="M227.62 59.99C213.49 59.99 201.03 50.72 196.97 37.19L192.65 22.8C188.59 9.26 176.13 0 162 0H65.62C51.49 0 39.03 9.27 34.97 22.8L30.65 37.19C26.59 50.72 14.13 59.99 0 59.99V78.4H227.62V59.99Z" fill="url(#paint0_linear_900_90)"/>
<path d="M227.62 60.109C213.49 60.109 201.03 50.8989 196.97 37.4564L192.65 23.1594C188.59 9.70686 176.13 0.506714 162 0.506714H65.62C51.49 0.506714 39.03 9.7168 34.97 23.1594L30.65 37.4564C26.59 50.8989 14.13 60.109 0 60.109" stroke="#AAAAAA" stroke-miterlimit="10"/>
</g>
<defs>
<linearGradient id="paint0_linear_900_90" x1="113.81" y1="56" x2="113.81" y2="78" gradientUnits="userSpaceOnUse">
<stop offset="0.201923" stop-color="white"/>
<stop offset="0.39" stop-color="white" stop-opacity="0"/>
</linearGradient>
<clipPath id="clip0_900_90">
<rect width="227.62" height="78.4" fill="white"/>
</clipPath>
</defs>
</svg>
