<svg width="228" height="61" viewBox="0 0 228 61" fill="none" xmlns="http://www.w3.org/2000/svg">
<path d="M227.62 60.1023C213.49 60.1023 201.03 50.8922 196.97 37.4496L192.65 23.1526C188.59 9.70015 176.13 0.5 162 0.5H65.62C51.49 0.5 39.03 9.71009 34.97 23.1526L30.65 37.4496C26.59 50.8922 14.13 60.1023 0 60.1023" fill="white"/>
<path d="M227.62 60.1023C213.49 60.1023 201.03 50.8922 196.97 37.4496L192.65 23.1526C188.59 9.70015 176.13 0.5 162 0.5H65.62C51.49 0.5 39.03 9.71009 34.97 23.1526L30.65 37.4496C26.59 50.8922 14.13 60.1023 0 60.1023" stroke="#222222" stroke-miterlimit="10"/>
</svg>
